<svg xmlns="http://www.w3.org/2000/svg" viewBox="0 0 130 91.14"><title>logo</title><g id="Layer_2" data-name="Layer 2"><g id="Layer_2-2" data-name="Layer 2"><path d="M1.11,87.76V81.22H.16V79.47h1V76.69h2v2.78H4.31v1.75H3.1v6.54Z"/><path d="M8.51,88A3.84,3.84,0,0,1,5.6,86.75a4.68,4.68,0,0,1,0-6.26,3.86,3.86,0,0,1,2.92-1.3,3.77,3.77,0,0,1,2.81,1.19v-.91h1.83v8.29H11.33v-.9A3.85,3.85,0,0,1,8.51,88Zm.33-7a2.28,2.28,0,0,0-1.74.75,2.66,2.66,0,0,0-.7,1.88,2.61,2.61,0,0,0,.7,1.86,2.26,2.26,0,0,0,1.74.75,2.29,2.29,0,0,0,1.74-.75,2.83,2.83,0,0,0,0-3.74A2.3,2.3,0,0,0,8.84,81Z"/><path d="M14.35,76.7h2V87.76h-2Z"/><path d="M21.59,88a4.12,4.12,0,0,1-3.06-1.29,4.49,4.49,0,0,1,0-6.26,4.26,4.26,0,0,1,6.13,0,4.33,4.33,0,0,1,1.26,3.14,5.1,5.1,0,0,1-.07.87H19.38a2.63,2.63,0,0,0,.57,1,2.16,2.16,0,0,0,1.69.74,2.26,2.26,0,0,0,1.15-.29,1.81,1.81,0,0,0,.77-.78h2.1a3.94,3.94,0,0,1-1.51,2.11A4.33,4.33,0,0,1,21.59,88Zm2.25-5.13a2.39,2.39,0,0,0-.59-1.15A2.13,2.13,0,0,0,21.59,81a2.16,2.16,0,0,0-1.67.75,2.93,2.93,0,0,0-.59,1.15Z"/><path d="M26.85,79.47h1.86v.72a3.11,3.11,0,0,1,2.3-1,2.94,2.94,0,0,1,2.34,1,3.94,3.94,0,0,1,.87,2.69v4.88h-2V83.33a3,3,0,0,0-.42-1.73,1.41,1.41,0,0,0-1.23-.6,1.47,1.47,0,0,0-1.29.6,3.06,3.06,0,0,0-.44,1.8v4.36h-2Z"/><path d="M36,87.76V81.22H35V79.47h1V76.69h2v2.78h1.2v1.75H38v6.54Z"/><path d="M51.39,89.33a2.49,2.49,0,0,0,1.91-.8A2.78,2.78,0,0,0,54,86.77,3.88,3.88,0,0,1,51.12,88a3.82,3.82,0,0,1-2.9-1.29,4.71,4.71,0,0,1,0-6.26,3.83,3.83,0,0,1,2.9-1.3,3.72,3.72,0,0,1,2.81,1.21v-.93h1.93v6.74a5.06,5.06,0,0,1-1.24,3.58,4.28,4.28,0,0,1-3.31,1.35,4.59,4.59,0,0,1-2.61-.74,3.69,3.69,0,0,1-1.5-2h2.32a1.54,1.54,0,0,0,.72.68A2.63,2.63,0,0,0,51.39,89.33Zm0-8.33a2.25,2.25,0,0,0-1.72.75A2.69,2.69,0,0,0,49,83.63a2.64,2.64,0,0,0,.69,1.86,2.35,2.35,0,0,0,3.44,0,2.86,2.86,0,0,0,0-3.74A2.27,2.27,0,0,0,51.44,81Z"/><path d="M56.88,76.7h2v1.83h-2Zm0,2.77h2v8.29h-2Z"/><path d="M64.19,89.33a2.49,2.49,0,0,0,1.91-.8,2.84,2.84,0,0,0,.73-1.76A3.91,3.91,0,0,1,63.92,88,3.8,3.8,0,0,1,61,86.75a4.68,4.68,0,0,1,0-6.26,3.82,3.82,0,0,1,2.9-1.3,3.73,3.73,0,0,1,2.81,1.21v-.93h1.93v6.74a5.07,5.07,0,0,1-1.25,3.58,4.27,4.27,0,0,1-3.3,1.35,4.54,4.54,0,0,1-2.61-.74,3.6,3.6,0,0,1-1.5-2h2.31a1.54,1.54,0,0,0,.72.68A2.66,2.66,0,0,0,64.19,89.33ZM64.25,81a2.24,2.24,0,0,0-1.72.75,2.66,2.66,0,0,0-.7,1.88,2.61,2.61,0,0,0,.7,1.86,2.23,2.23,0,0,0,1.71.75A2.27,2.27,0,0,0,66,85.49a2.88,2.88,0,0,0,0-3.74A2.25,2.25,0,0,0,64.25,81Z"/><path d="M73,81.71a.87.87,0,0,0-.28-.52.75.75,0,0,0-.52-.18.8.8,0,0,0-.56.2.67.67,0,0,0-.22.51.55.55,0,0,0,.27.48,4.64,4.64,0,0,0,1,.42,4.33,4.33,0,0,1,1.87,1,2.25,2.25,0,0,1,.55,1.59,2.7,2.7,0,0,1-.82,2,2.93,2.93,0,0,1-2.12.79,3,3,0,0,1-2.16-.8,3,3,0,0,1-.91-2.09h2a1.39,1.39,0,0,0,.36.8.94.94,0,0,0,.7.27A1,1,0,0,0,73,86a.76.76,0,0,0,.26-.59.75.75,0,0,0-.24-.59,2.54,2.54,0,0,0-.92-.43,4.77,4.77,0,0,1-2-1,2.09,2.09,0,0,1-.59-1.56,2.48,2.48,0,0,1,.78-1.89,2.9,2.9,0,0,1,2-.73,2.62,2.62,0,0,1,1.85.73A2.55,2.55,0,0,1,75,81.71Z"/><path d="M85.78,81.22v6.54h-2V81.22h-.71V79.47h.71a3.38,3.38,0,0,1,.76-2.13,2.64,2.64,0,0,1,2.09-.85H87v1.94h-.1a1.3,1.3,0,0,0-.88.24,1,1,0,0,0-.27.78v0H87v1.75Z"/><path d="M91.49,88a4.12,4.12,0,0,1-3.06-1.29,4.49,4.49,0,0,1,0-6.26,4.26,4.26,0,0,1,6.13,0,4.3,4.3,0,0,1,1.27,3.14,6.38,6.38,0,0,1-.07.87H89.29a2.6,2.6,0,0,0,.56,1,2.18,2.18,0,0,0,1.69.74,2.24,2.24,0,0,0,1.15-.29,1.76,1.76,0,0,0,.77-.78h2.11a4,4,0,0,1-1.52,2.11A4.33,4.33,0,0,1,91.49,88Zm2.26-5.13a2.58,2.58,0,0,0-.59-1.15,2.22,2.22,0,0,0-3.33,0,2.82,2.82,0,0,0-.6,1.15Z"/><path d="M100.09,81.71a.87.87,0,0,0-.28-.52.77.77,0,0,0-.53-.18.82.82,0,0,0-.56.2.66.66,0,0,0-.21.51.55.55,0,0,0,.27.48,4.51,4.51,0,0,0,1,.42,4.21,4.21,0,0,1,1.87,1,2.25,2.25,0,0,1,.56,1.59,2.71,2.71,0,0,1-.83,2,2.91,2.91,0,0,1-2.12.79,3,3,0,0,1-2.15-.8,2.92,2.92,0,0,1-.91-2.09h2a1.45,1.45,0,0,0,.36.8.94.94,0,0,0,.7.27A1,1,0,0,0,100,86a.74.74,0,0,0,.27-.59.75.75,0,0,0-.24-.59,2.52,2.52,0,0,0-.93-.43,4.77,4.77,0,0,1-2-1,2.13,2.13,0,0,1-.59-1.56,2.45,2.45,0,0,1,.79-1.89,2.88,2.88,0,0,1,2-.73,2.69,2.69,0,0,1,2.7,2.52Z"/><path d="M103.46,87.76V81.22h-.95V79.47h.95V76.69h2v2.78h1.2v1.75h-1.2v6.54Z"/><path d="M107.14,76.7h2v1.83h-2Zm0,2.77h2v8.29h-2Z"/><path d="M109.65,79.47h2.11l2,5.73h0l2-5.73h2.11l-3.35,8.29H113Z"/><path d="M122.17,88a3.83,3.83,0,0,1-2.91-1.29,4.68,4.68,0,0,1,0-6.26,3.86,3.86,0,0,1,2.92-1.3A3.77,3.77,0,0,1,125,80.38v-.91h1.83v8.29H125v-.9A3.85,3.85,0,0,1,122.17,88Zm.33-7a2.28,2.28,0,0,0-1.74.75,2.66,2.66,0,0,0-.7,1.88,2.61,2.61,0,0,0,.7,1.86,2.26,2.26,0,0,0,1.73.75,2.3,2.3,0,0,0,1.75-.75,2.83,2.83,0,0,0,0-3.74A2.3,2.3,0,0,0,122.5,81Z"/><path d="M128,76.7h2V87.76h-2Z"/><circle cx="42.92" cy="83.29" r="1.11"/><circle cx="79.76" cy="83.29" r="1.11"/><path d="M129.84,29.8V49h-8.19V70.57H103.32V26.32a27.22,27.22,0,0,1,2.4-12A25.16,25.16,0,0,1,115,4a23.55,23.55,0,0,1,12.92-4l2,.05V19.31c-.43,0-.74,0-.93,0a6.54,6.54,0,0,0-5.37,2.31,10.08,10.08,0,0,0-1.89,6.56V29.8Z"/><path d="M80.67,21.7v16q0,15.3-9.92,16V70.57l.66,0q13.66,0,21.46-9.71Q99,53.25,99,40.3V21.7Z"/><circle cx="89.84" cy="9.45" r="9.45"/><path d="M62.68,27.39A18.16,18.16,0,0,0,48,20.72q-7.2,0-14.41,6.87Q27.11,20.72,19,20.72A17.94,17.94,0,0,0,5.54,26.48,19.46,19.46,0,0,0,0,40.47v30.1H17.56V42.36a3.86,3.86,0,0,1,7.71,0V70.57h16.5V42.36a3.86,3.86,0,0,1,7.72,0V70.57H67v-28Q67,32.58,62.68,27.39Z"/></g></g></svg>