<?xml version="1.0" encoding="utf-8"?>
<!-- Generator: Adobe Illustrator 21.1.0, SVG Export Plug-In . SVG Version: 6.00 Build 0)  -->
<svg version="1.1" id="Layer_1" xmlns="http://www.w3.org/2000/svg" xmlns:xlink="http://www.w3.org/1999/xlink" x="0px" y="0px"
	 viewBox="0 0 622.5 367.5" style="enable-background:new 0 0 622.5 367.5;" xml:space="preserve">
<style type="text/css">
	.st0{fill:#2A2D34;}
</style>
<g>
	<polygon class="st0" points="12,203.7 12,219.3 32.6,219.3 32.6,324.4 51.6,324.4 51.6,219.3 72.3,219.3 72.3,203.7 	"/>
	<polygon class="st0" points="71.2,230.1 90.2,230.1 90.2,266.2 112.4,266.2 112.4,230.1 131.4,230.1 131.4,324.4 112.4,324.4 
		112.4,282.5 90.2,282.5 90.2,324.4 71.2,324.4 	"/>
	<polygon class="st0" points="200.6,230.1 200.6,245.7 166.9,245.7 166.9,267.9 198.6,267.9 198.6,283.5 166.9,283.5 166.9,308.8 
		201.9,308.8 201.9,324.4 147.9,324.4 147.9,230.1 	"/>
	<polygon class="st0" points="243.4,324.4 243.4,203.7 262.5,203.7 262.5,308.8 296.2,308.8 296.2,324.4 	"/>
	<g>
		<path class="st0" d="M335.4,312.3c11.2,0,13.1-9.6,13.1-35c0-25.2-1.8-35-13.1-35c-11.2,0-13.1,9.8-13.1,35
			C322.3,302.6,324.2,312.3,335.4,312.3 M335.4,228.3c28.5,0,32.1,20.3,32.1,49c0,28.7-3.6,49-32.1,49c-28.5,0-32.1-20.3-32.1-49
			C303.3,248.6,306.9,228.3,335.4,228.3"/>
	</g>
	<polygon class="st0" points="372.7,230.1 391,230.1 401.4,299.9 401.7,299.9 412.8,230.1 431,230.1 442.1,299.9 442.4,299.9 
		452.8,230.1 471,230.1 453.8,324.4 432.6,324.4 422,256 421.7,256 411.2,324.4 389.9,324.4 	"/>
	<g>
		<path class="st0" d="M498.1,271.3h7.9c9.1,0,14.3-4,14.3-14.1c0-8.7-4.6-13.1-13.2-13.1h-9V271.3z M479,230.1h35.1
			c15.6,0,25.1,8.2,25.1,24.3c0,12.5-5,21-15.7,23.2v0.3c12.9,1.7,14.9,8.8,15.2,28.8c0.1,9.9,0.7,15.1,4.2,16.9v0.8h-20.6
			c-1.9-2.6-2.2-6.2-2.4-9.9l-0.5-18.1c-0.3-7.4-3.6-11.9-11.2-11.9h-10.2v39.9h-19V230.1z"/>
	</g>
	<polygon class="st0" points="586.7,230.1 573.5,266.6 573.2,266.6 560.8,230.1 539.4,230.1 563.8,287.3 563.8,355.3 582.9,355.3 
		582.9,287.3 607.3,230.1 	"/>
	<g>
		<path class="st0" d="M309.7,49.9c-9.7,0-19.2,0.5-28.3,1.3l30.4,60.7H199l24-48c-30.5,11.4-49.9,28.6-49.9,48
			c0,34.3,61.1,62.1,136.6,62.1c75.4,0,136.6-27.8,136.6-62.1C446.2,77.7,385.1,49.9,309.7,49.9"/>
	</g>
	<polygon class="st0" points="255.4,8.5 205.7,107.9 305,107.9 	"/>
</g>
</svg>
